<svg xmlns="http://www.w3.org/2000/svg" width="90" height="90" viewBox="-10 -10 90 90">
    <defs>
        <linearGradient id="bxu38umjba" x1="16.724%" x2="86.465%" y1="38.885%" y2="106.482%">
            <stop offset="0%" stop-color="#FFD280"/>
            <stop offset="0%" stop-color="#FFD280"/>
            <stop offset="30%" stop-color="#D9AE6D"/>
            <stop offset="57%" stop-color="#BE955F"/>
            <stop offset="81%" stop-color="#AE8557"/>
            <stop offset="100%" stop-color="#A88054"/>
        </linearGradient>
    </defs>
    <g fill="none">
        <path fill="#050033" d="M55.725 45.266l-2.434-2.898c1.282-.294 2.064-1.032 2.064-2.311 0-1.447-1.227-2.163-2.78-2.163h-4.867v7.382h1.291v-2.803h2.9l2.231 2.793h1.595zm-6.726-6.236h3.612c.89 0 1.42.417 1.42 1.117s-.555 1.18-1.42 1.18h-3.612V39.03zM3.808 37.884L0 45.266h1.46l.813-1.643h4.324l.812 1.643h1.494l-3.792-7.382H3.808zm-.97 4.593l1.6-3.244 1.603 3.244H2.84zM15.739 38.855c1.215 0 2.215.458 2.728 1.263l1.04-.7c-.727-1.023-2.017-1.73-3.768-1.73-2.83 0-4.453 1.848-4.453 3.886 0 2.039 1.624 3.889 4.453 3.889 1.751 0 3.041-.708 3.768-1.73l-1.04-.7c-.513.804-1.513 1.262-2.728 1.262-1.901 0-3.13-1.067-3.13-2.72 0-1.654 1.229-2.72 3.13-2.72zM27.461 38.855c1.213 0 2.214.458 2.727 1.263l1.042-.7c-.73-1.023-2.02-1.73-3.769-1.73-2.829 0-4.454 1.848-4.454 3.886 0 2.039 1.625 3.889 4.454 3.889 1.75 0 3.04-.708 3.769-1.73l-1.042-.7c-.513.804-1.514 1.262-2.727 1.262-1.903 0-3.131-1.067-3.131-2.72 0-1.654 1.226-2.72 3.131-2.72zM39.184 37.688c-2.83 0-4.455 1.848-4.455 3.886 0 2.039 1.626 3.887 4.455 3.887s4.458-1.846 4.458-3.887c0-2.04-1.63-3.886-4.458-3.886zm0 6.619c-1.903 0-3.132-1.072-3.132-2.733 0-1.66 1.229-2.732 3.132-2.732s3.13 1.073 3.13 2.732c0 1.66-1.227 2.733-3.13 2.733zM13.478 51.349h3.613c.89 0 1.422.416 1.422 1.116 0 .7-.559 1.18-1.422 1.18h-3.613v-2.296zm-1.29-1.147v7.382h1.29v-2.793h2.896l2.229 2.793h1.602l-2.435-2.897c1.283-.295 2.066-1.033 2.066-2.312 0-1.447-1.227-2.173-2.78-2.173h-4.868zM4.439 51.551l1.602 3.244H2.84l1.6-3.244zm-.631-1.349L0 57.584h1.46l.813-1.643h4.324l.812 1.643h1.494l-3.792-7.382H3.808zM51.252 51.551l1.602 3.244H49.65l1.602-3.244zm-.633-1.349l-3.806 7.382h1.46l.813-1.643h4.335l.811 1.643h1.495l-3.808-7.382h-1.3zM41.983 50.212L41.983 56.031 37.293 50.212 36.911 50.212 35.738 50.212 35.606 50.212 35.606 57.574 36.911 57.574 36.911 51.667 41.671 57.574 41.983 57.574 43.226 57.574 43.288 57.574 43.288 50.212zM31.639 51.349L31.639 50.204 24.343 50.204 24.343 50.218 24.33 50.218 24.33 57.58 24.343 57.58 24.343 57.582 31.639 57.582 31.639 56.44 25.637 56.44 25.637 54.779 29.858 54.779 29.858 53.637 25.637 53.637 25.637 51.349z" transform="translate(7 7)"/>
        <path fill="url(#bxu38umjba)" d="M42.217 29.915H35.25l-5.121-10.673c-2.796 1.52-4.39 5.04-7.225 7.364-1.552 1.294-3.328 2.294-5.24 2.949-.954.326-2.574.747-3.183.808-.256.023-.435.014-.472-.079-.038-.092.041-.124.312-.255.309-.15 1.589-.68 2.39-1.239 1.001-.698 1.574-1.45 1.619-2.033-.275-.97-2.235-3.123-.23-7.077.72-1.417 1.34-2.437 1.787-3.464.52-1.303.856-2.673.996-4.069 0-.07.022-.067.061-.027.983.983 4.76 4.88 4.211 8.754 1.258-.484 3.44-1.95 4.447-2.735 1.062-.826 1.754-1.689 2.878-1.708 1.009-.016 1.095.464 1.897.57.219.025.44-.005.645-.087.06-.03.047-.096-.047-.12-1.093-.257-1.357-1.148-2.77-1.148-1.268 0-2.279 1.168-3.01 1.648l-3.578-7.457C24.121 6.723 24.573 4.457 27.862 0l14.355 29.915z" transform="translate(7 7)"/>
    </g>
</svg>
